<svg xmlns="http://www.w3.org/2000/svg" viewBox="0 0 2245.97 909.9"><defs><style>.cls-1{fill:#ffe67b;}.cls-1,.cls-10,.cls-4,.cls-5,.cls-7,.cls-9{fill-rule:evenodd;}.cls-2,.cls-5{fill:#282828;}.cls-3{fill:#eee;}.cls-4{fill:#fff;}.cls-6{fill:#ffbb71;}.cls-7{fill:#c4c0ef;}.cls-8{fill:#ffc880;}.cls-9{fill:#ffb8b8;}.cls-10{fill:#a9fcf4;isolation:isolate;}</style></defs><title>limbs</title><g id="Layer_2" data-name="Layer 2"><g id="LIMBS"><g id="limbs-2" data-name="limbs"><g id="yellow_eye"><path id="Path_14" data-name="Path 14" class="cls-1" d="M2245.19,310c-5.46-42.8-42-70.79-59.23-84.48-45.48-36.06-126.22-66.72-164-37.59-45.94,35.46-1.9,139.27,19.17,272.55,16.54,104.67,23.38,255.74-25.17,449.45h120c-68.33-255.23-28.81-380,26.65-446.5C2191.83,428.39,2253.59,375.78,2245.19,310Z"/><circle id="Ellipse_6" data-name="Ellipse 6" class="cls-2" cx="2123.99" cy="327.21" r="73.01"/><g id="Group_19" data-name="Group 19"><path id="Path_16" data-name="Path 16" class="cls-3" d="M2160.84,371.46a17.51,17.51,0,1,1,15.56-19.27A17.51,17.51,0,0,1,2160.84,371.46Z"/></g></g><g id="yellow-eye"><path id="Path_17" data-name="Path 17" class="cls-1" d="M953,511.9c-2.61-41.12,30.06-65.25,18.74-80-9.93-12.94-36.39,3.52-52.74-12-16.63-15.79-2.69-45.5-15-52-13.54-7.15-31.76,28.63-63,28-29.7-.6-41.61-33.5-58-28-17.53,5.88-4.27,43.61-30,80-20.9,29.56-49.73,33.08-48,48,2,17.4,40.75,16.49,47,39,6.45,23.24-29.48,43.83-22.26,61,6.32,15,37.6,8.11,55.26,16,31.29,14,46,86.1,6,298H907c-25.18-55.4-32.61-103.38-35-134-4-51.37-10.63-131.3,34-165,27.38-20.67,59-12.61,66.74-34C979.8,557.42,955.18,546.34,953,511.9Z"/><g id="Group_21" data-name="Group 21"><path id="Path_19" data-name="Path 19" class="cls-4" d="M847.7,428.06a74.06,74.06,0,1,1-74.05,74.06h0A74.05,74.05,0,0,1,847.7,428.06Z"/><path id="Path_20" data-name="Path 20" class="cls-5" d="M847.7,462a40.15,40.15,0,1,1-40.15,40.15h0A40.15,40.15,0,0,1,847.7,462Z"/><path id="Union_1" data-name="Union 1" class="cls-4" d="M824.74,462.22a21.16,21.16,0,1,1-21.16,21.16,21.16,21.16,0,0,1,21.16-21.16Z"/></g></g><path id="orange_hand1" class="cls-6" d="M272,909.9a365.11,365.11,0,0,0,35.16-132.73c7.33-107.85-36.25-189-55.88-221-19.71-1.39-49.27-6.83-59.89-26.63-16.34-30.45,16.14-36.75,27-21,8,11.55,24.7,19.14,38.28,21.92l4.2-1.8c-7.08-13-20.57-37.09-29.89-49.33-13.16-17.27-9.85-33.38-2.95-36.46,6.48-2.89,18.81-27.87,58.11,75l6.32-2.71c-2.66-8.68-6.12-19.33-10-30.3-9.25-27.75-21.31-57.7-14.82-64.4a34.73,34.73,0,0,1,6.3-4c.57-.27,1.14-.52,1.72-.73a17.21,17.21,0,0,1,1.76-.57,13.93,13.93,0,0,1,3.58-.5c4.85-.06,9.75,2.62,14.35,10.17s8.7,19.51,12.8,37.57q.76,3.31,1.53,6.9c.51,2.38,1,4.84,1.55,7.38,1,5.06,2.12,10.45,3.32,16.18q1.19,5.67,2.57,11.75l8.52-3.64c-4.49-26.49-11.24-74.52-2-78.56,12.33-5.39,25.38-1.56,26.2,68.54q2.28,6.81,4.55,13.77a65.89,65.89,0,0,0,3.41-5.93c9.48-18.59,6.57-34.35,16.09-38.1,5.41-2.13,12.76.44,15.9,4.91,6.72,9.56-5.69,28-11.85,37.1a105.67,105.67,0,0,1-17.77,20.17c9.69,31.08,19.06,64.51,27.63,100.16,17.53,72.85,27.16,110,29.34,156.8,1.44,31.1.37,75.86-12.11,130.15H272Z"/><path id="tentacle" class="cls-7" d="M1639.81,840.05c28.41-78.92,34.55-143.44,38.09-184.18,6-68.75,4.47-141-6.74-205.18a6.22,6.22,0,0,0,1.43-6.85,6.72,6.72,0,0,0-3.41-3.84c-1.87-9.61-4-19-6.29-28.19l1.35-.49c2.76-1,4-4.44,2.86-7.69s-4.37-5.06-7.13-4.06l-.35.13c-2.7-9.48-5.66-18.69-8.9-27.54l4.47-1.62c2.75-1,4-4.44,2.86-7.69s-4.38-5.06-7.13-4.06l-4.72,1.71q-3.56-8.69-7.49-16.87l2.45-1.71c2.4-1.69,2.74-5.35.76-8.17s-5.53-3.75-7.94-2.07l-1,.74c-2.74-5-5.58-9.89-8.58-14.54l3-2.1c2.4-1.69,2.74-5.35.76-8.17s-5.54-3.75-7.94-2.07l-2.93,2.06c-3.38-4.59-6.89-9-10.57-13.08-.13-.15-.26-.31-.4-.46l4.49-3.16c2.41-1.68,2.75-5.34.77-8.17s-5.54-3.75-7.94-2.06l-5.53,3.88q-5.34-6.41-10.11-12.71l7.9-5.54c2.41-1.69,2.75-5.35.77-8.17s-5.54-3.75-7.94-2.06l-8.08,5.66q-6-8.66-11-17.09l5.52-3.87c2.4-1.69,2.75-5.35.77-8.17s-5.54-3.75-7.95-2.06l-4.46,3.13q-4.26-8.1-7.58-16l4.57-3.21c2.41-1.68,2.75-5.35.77-8.17s-5.54-3.75-7.94-2.07l-2,1.44a172.57,172.57,0,0,1-5.25-18.24l6.46-1.51c2.86-.67,4.54-3.94,3.75-7.3s-3.74-5.54-6.6-4.87l-5.88,1.38q-.8-5.68-1.12-11.18l11.19-2.62c2.85-.67,4.53-3.94,3.74-7.3s-3.74-5.54-6.6-4.87l-8.45,2a117.27,117.27,0,0,1,1.13-12.27l6.39,1.17c2.89.53,5.74-1.79,6.36-5.19s-1.22-6.58-4.1-7.1l-6.18-1.14a106.86,106.86,0,0,1,4.18-12.68L1554,116c2.56,1.42,6,.12,7.67-2.9s.94-6.62-1.63-8l-4.4-2.43A99.73,99.73,0,0,1,1563.06,91l3,3c2.07,2.09,5.73,1.83,8.19-.59s2.78-6.08.73-8.17l-3.73-3.79a95.4,95.4,0,0,1,9.12-8.28l6,6.09c2,2.1,5.72,1.83,8.18-.59s2.78-6.08.73-8.17L1590.79,66a86.71,86.71,0,0,1,14.46-6.81l1.21,4.22c.82,2.82,4.16,4.33,7.48,3.38s5.35-4,4.53-6.84l-1.17-4.07a73.45,73.45,0,0,1,11-1.27l-.66,7.1c-.27,2.92,2.29,5.56,5.73,5.88s6.44-1.79,6.72-4.72l.71-7.63a63.67,63.67,0,0,1,19.63,6.15L1656.45,67c-1.86,2.61-.88,6.49,2.19,8.67s7.06,1.84,8.92-.77l4.58-6.45q7.83,4.69,15.59,8.67l-3.8,5.35c-1.86,2.61-.88,6.49,2.19,8.68s7.06,1.83,8.91-.78l5.18-7.27c2.12,1,4.25,1.88,6.36,2.75l-2.32,3.27c-1.85,2.61-.87,6.49,2.2,8.67s7.06,1.84,8.91-.77l4.38-6.15q7.17,2.5,14.2,4.5l-1.14,3.38c-1,3,1.06,6.47,4.62,7.66s7.29-.29,8.31-3.33l1.45-4.36q5.29,1.18,10.45,2.09l-.72,5.8c-.4,3.18,2.3,6.13,6,6.6s7.09-1.73,7.49-4.91l.68-5.51q9,1.07,17.5,1.43l.3,8.43c.12,3.2,3.26,5.68,7,5.55s6.72-2.84,6.61-6l-.28-7.7c6.91-.08,13.47-.44,19.63-1l.18,5c.11,3.2,3.25,5.68,7,5.55s6.72-2.84,6.61-6l-.23-6.19c1.61-.25,3.19-.5,4.72-.76l0,.06,9.62,9.77c2.06,2.1,5.72,1.83,8.18-.59s2.78-6.08.73-8.17l-4-4c4.09-1,7.71-2,10.82-2.88l6.25,6.35c2.06,2.09,5.72,1.82,8.18-.6s2.78-6.07.73-8.17L1878,89.92C1773.32-66.8,1527.2,1.34,1503.65,141.51c-7.94,47.29,22.13,97,46.6,138.91C1613.61,389,1654,574.35,1541,909.9h69A655.58,655.58,0,0,0,1639.81,840.05Z"/><g id="orange_hand2"><path id="Shape_51" data-name="Shape 51" class="cls-8" d="M1787,909.9a327.92,327.92,0,0,1,17.94-306.59c10.57-34.51,10.18-49.72,22.38-45.6,6.44,2.17,6.54,13.82,4.8,25.65a20.81,20.81,0,0,1,4.25-.19c2.6-6.48,5.55-8.75,11.24-6.83,3.61,1.21,5.22,5.42,5.64,11,1.52.47,3,.94,4.42,1.42,4.81-8.3,8.92-10.9,15.73-7.2,4.5,2.44,5.34,8.71,4.26,16.41,1.06.7,2.08,1.41,3,2.14,15.47-21.23,21-30.55,31.18-23.58,10.55,7.24-7.05,34.3-16.81,47.76a62.47,62.47,0,0,1,.62,11.68c10.78-5.77,22.71-7.52,30.43,5.26,7.87,13-.56,19.85-18.57,17.72-6.35-.76-15.07,10.17-17.75,14.08-1.61,7-3.49,14.49-5.55,22.64-18.44,72.79,2.47,202.2,1.75,214.27h-99Z"/></g><path id="red_claw" class="cls-9" d="M565.74,778.9c15-102,18.21-181.17,20.26-236,1.66-44.45,2.69-102.82.7-171.62,0,0-183.69-36,41.17-286,0,0,7.48-9,10.35-6.76,2.33,1.78-7.18,17.74-7.13,24S643,110.08,646.2,113.8s-2.94,11.31-13.54,19.75,16.7,20,15.7,28-25.05,11.38-26.2,22.8,21.43,8.81,19.77,20.54c-1,6.71-23.15,6.95-25.76,19.52s20,12.93,19.31,23.45-24.54,7.94-26.82,18.28,20.06,10.92,19.55,21-28.29,9.66-28.87,23,22.13,10.06,21,20.21-26.5,6.65-26,17.37,33.38,13.51,38.34-3.66S668.87,218.89,665,144.75c0,0,35.57,27,40.83,77.83s-9.25,133.27-76.72,156.56c.17,33.2.1,80.26-1.12,136.76-1.73,80.41-3.41,152.15-12,243-3.56,37.64-9.33,89.36-19,151H541.74C548.71,878.19,557.74,833.25,565.74,778.9Z"/><path id="blue_hand" class="cls-10" d="M1414.56,378.19c-.08,4.95.08,13.6,2.2,18.46a19.69,19.69,0,0,1,8.29,1.32c1-3.94-.13-10.6-.9-14.38-.86-4.25.71-7.42,3.9-6.94s4.47,3.59,3.66,8.41c-.61,3.67-2,11.38-2.55,14.89,7.8,4.57,16.69,14.38,26.18,32.64,26.9,51.77-6.87,116.91-46.15,136.48s-120.09,34.27-112.78,95.48,57.88,75.44,86.86,95.8c20.87,14.66,21.48,16.87,28.09,24.36,32.09,36.37,32.49,86.94,27.35,125.19h-56.18c9.16-60.4-5-94.06-20.66-113.88-31.15-39.32-80.41-36.94-102-84-7.65-16.71-11.17-36.8-8.52-61.75,9.19-86.87,122.85-77.62,160.95-133.26s-3.45-80.24-3.45-80.24-1-1.12-2.37-3c-4.93,3.81-4.84,9.82-7.78,11.8-3.62,2.45-7.91,1-6-6.58,1.23-4.91,6.8-8.23,10.56-10a37.39,37.39,0,0,1-4.85-10.76c-4.3-1.18-11.92-3.26-15.7-4.32-5.43-1.52-8.08-4.28-7-7.68s5.11-3.45,9.14-.55c3.15,2.27,8.54,4.52,13.41,6.46l0-.19a19.12,19.12,0,0,1,3.06-6.1c-4.89-3.67-12.42-9.35-16.29-12.3-6-4.58-7.89-9.35-4.84-13.1s8.19-1.8,11.73,3.83c3.08,4.89,8.72,13.23,13.91,16.77a21,21,0,0,1,5.36-3.21c-1.8-4.85-4.57-12.28-6-16.13-2.2-6-1.31-10.29,2.67-11.64S1414.64,372.54,1414.56,378.19Z"/><path id="red_hand2" class="cls-9" d="M1050.22,849.67c-13.33-135,5.35-231,10.63-260.92.19-1.11.41-2.17.66-3.21A14.79,14.79,0,0,1,1058,584c-5.77-3.47-8.21-10-5.43-14.63s9.69-5.53,15.47-2.06a14.46,14.46,0,0,1,2.06,1.5c.55-.58,1.12-1.14,1.7-1.66a18.91,18.91,0,0,1-1.64-15.9c3.16-8.53,12.06-11.17,19.17-5.28a18.32,18.32,0,0,1,6.3,12c.54,0,1.09-.08,1.64-.12a26.14,26.14,0,0,1,3-14.84c6.27-11.67,19-15.16,27.71-8,7.35,6.12,8.93,17.78,4.59,27.29l2.57.7c5.56-8.63,14.81-12.62,21-8.9,6.36,3.82,7.06,14.33,1.57,23.46a27.44,27.44,0,0,1-3.09,4.17c-.13,5.56.9,10.31,2.73,16.37,9.95-3.88,18.2-.92,21.21,1.65,3.87,3.3,4.71,8.86,2.39,14.09-1.72,3.85-6.92,10.61-16,14q-9.67,112-17.88,224.1-2.13,29-4.15,57.94h-85C1054,884.5,1051.6,863.63,1050.22,849.67Z"/><g id="blue_eye"><path id="Path_12" data-name="Path 12" class="cls-10" d="M259.21,190.45c10.13-45.88,1-111.76-42.21-142.55C167.67,12.77,83.37,30.06,45,75.9c-47.55,56.81,12.72,112.94.71,272C35.46,483.76-19.86,596.07,18,619.9c8.83,5.56,12.76-.18,22,6,44.61,29.84-8.46,189.51-34,266.3-2.5,7.53-4.63,13.7-6,17.7H129c-56.2-333.84-38.17-436.71,0-451,11.53-4.32,37.23-5.16,50-25,15.28-23.74-5.85-46.86-6.16-82.9C172.25,282.49,242,268.49,259.21,190.45Z"/><circle id="Ellipse_5" data-name="Ellipse 5" class="cls-2" cx="149.03" cy="156.62" r="73.01"/><g id="Group_17" data-name="Group 17"><path id="Path_13" data-name="Path 13" class="cls-3" d="M174,200.84a22.15,22.15,0,1,1,19.68-24.38A22.16,22.16,0,0,1,174,200.84Z"/></g><g id="Group_17-2" data-name="Group 17"><path id="Path_13-2" data-name="Path 13" class="cls-3" d="M204.06,139a17.51,17.51,0,1,1,15.55-19.27A17.51,17.51,0,0,1,204.06,139Z"/></g></g></g></g></g></svg>